# AST/ASF file generated using VICON BodyLanguage
# -----------------------------------------------
:version 1.10
:name VICON
:units
  mass 1.0
  length 0.45
  angle deg
:documentation
   .ast/.asf automatically generated from VICON data using
   VICON BodyBuilder and BodyLanguage model FoxedUp or BRILLIANT.MOD
:root
   order TX TY TZ RX RY RZ
   axis XYZ
   position 0 0 0  
   orientation 0 0 0 
:bonedata
  begin
     id 1 
     name lhipjoint
     direction 0.528046 -0.759594 0.379717 
     length 2.39752 
     axis 0 0 0  XYZ
  end
  begin
     id 2 
     name lfemur
     direction 0.34202 -0.939693 0  
     length 7.31175  
     axis 0 0 20  XYZ
    dof rx ry rz
    limits (-160.0 20.0)
           (-70.0 70.0)
           (-60.0 70.0)
  end
  begin
     id 3 
     name ltibia
     direction 0.34202 -0.939693 0   
     length 7.52482   
     axis 0 0 20   XYZ
    dof rx
    limits (-10.0 170.0)
  end
  begin
     id 4 
     name lfoot
     direction 0.0675379 -0.185559 0.980309   
     length 2.00961   
     axis -90 7.62852e-016 20   XYZ
    dof rx rz
    limits (-45.0 90.0)
           (-70.0 20.0)
  end
  begin
     id 5 
     name ltoes
     direction 1.5352e-011 -4.22286e-011 1   
     length 1.01383   
     axis -90 7.62852e-016 20   XYZ
    dof rx
    limits (-90.0 20.0)
  end
  begin
     id 6 
     name rhipjoint
     direction -0.510274 -0.769251 0.384544   
     length 2.36742  
     axis 0 0 0  XYZ 
  end
  begin
     id 7 
     name rfemur
     direction -0.34202 -0.939693 0   
     length 7.45325   
     axis 0 0 -20   XYZ
    dof rx ry rz
    limits (-160.0 20.0)
           (-70.0 70.0)
           (-70.0 60.0)
  end
  begin
     id 8 
     name rtibia
     direction -0.34202 -0.939693 0   
     length 7.49587   
     axis 0 0 -20   XYZ
    dof rx
    limits (-10.0 170.0)
 end
 begin
     id 9 
     name rfoot
     direction -0.106475 -0.292536 0.950308   
     length 2.20898  
     axis -90 -7.62852e-016 -20   XYZ
    dof rx rz
    limits (-45.0 90.0)
           (-20.0 70.0)
  end
  begin
     id 10 
     name rtoes
     direction -1.53597e-011 -4.22023e-011 1   
     length 1.10065   
     axis -90 -7.62852e-016 -20   XYZ
    dof rx
    limits (-90.0 20.0)
  end
  begin
     id 11 
     name lowerback
     direction 0.0260024 0.998026 -0.0571652   
     length 2.11214   
     axis 0 0 0   XYZ
    dof rx ry rz
    limits (-20.0 45.0)
           (-30.0 30.0)
           (-30.0 30.0)
  end
  begin
     id 12 
     name upperback
     direction 0.0216202 0.999542 -0.0211766   
     length 2.11689   
     axis 0 0 0   XYZ
    dof rx ry rz
    limits (-20.0 45.0)
           (-30.0 30.0)
           (-30.0 30.0)
  end
  begin
     id 13 
     name thorax
     direction 0.00883312 0.999944 0.00589057   
     length 2.11821   
     axis 0 0 0   XYZ
    dof rx ry rz
    limits (-20.0 45.0)
           (-30.0 30.0)
           (-30.0 30.0)
  end
  begin
     id 14 
     name lowerneck
     direction -0.059386 0.994433 0.0870401   
     length 1.81176   
     axis 0 0 0   XYZ
    dof rx ry rz
    limits (-20.0 45.0)
           (-30.0 30.0)
           (-30.0 30.0)
  end
  begin
     id 15 
     name upperneck
     direction 0.0506457 0.97328 -0.223967   
     length 1.82382   
     axis 0 0 0   XYZ
    dof rx ry rz
    limits (-20.0 45.0)
           (-30.0 30.0)
           (-30.0 30.0)
  end
  begin
     id 16
     name head
     direction 0.0205902 0.996147 -0.0852487  
     length 1.84805  
     axis 0 0 0   XYZ
    dof rx ry rz
    limits (-20.0 45.0)
           (-30.0 30.0)
           (-30.0 30.0)
  end
  begin
     id 17 
     name lclavicle
     direction 0.949493 0.303881 -0.0782325  
     length 3.60584  
     axis 0 0 0   XYZ
    dof ry rz
    limits (-20.0 10.0)
           (0.0 20.0)
  end
  begin
     id 18 
     name lhumerus
     direction 1 -4.48965e-011 1.48782e-027   
     length 4.95681   
     axis 180 -30 -90   XYZ
    dof rx ry rz
    limits (-60.0 90.0)
           (-90.0 90.0)
           (-90.0 90.0)
  end
  begin
     id 19
     name lradius
     direction 1 -4.48952e-011 2.06528e-027   
     length 3.40915   
     axis 180 -30 -90   XYZ
    dof rx
    limits (-10.0 170.0)
  end
  begin
     id 20
     name lwrist
     direction 1 -4.48964e-011 1.28021e-027   
     length 1.70457   
     axis -1.61767e-015 90 90   XYZ
    dof ry
    limits (-180.0 0.0)
 end
  begin
     id 21 
     name lhand
     direction 1 -4.49094e-011 2.54887e-027   
     length 0.616403   
     axis -1.63363e-015 90 90   XYZ
    dof rx rz
    limits (-90.0 90.0)
           (-45.0 45.0)
  end
  begin
     id 22 
     name lfingers
     direction 1 -4.49002e-011 5.11407e-027   
     length 0.49696   
     axis -3.26723e-015 90 90   XYZ
    dof rx
    limits (0.0 90.0)
  end
  begin
     id 23
     name lthumb
     direction 0.707107 -6.34998e-011 0.707107   
     length 0.713539   
     axis -90 45 -2.25915e-014   XYZ
    dof rx rz
    limits (-45.0 45.0)
           (-45.0 45.0)
  end
  begin
     id 24 
     name rclavicle
     direction -0.937751 0.334612 -0.0930482   
     length 3.46287  
     axis 0 0 0   XYZ 
    dof ry rz
    limits (-10.0 20.0)
           (-20.0 0.0)
  end
  begin
     id 25 
     name rhumerus
     direction -1 -4.48962e-011 3.59972e-027  
     length 5.352   
     axis 180 30 90   XYZ
    dof rx ry rz
    limits (-90.0 60.0)
           (-90.0 90.0)
           (-90.0 90.0)
  end
  begin
     id 26 
     name rradius
     direction -1 -4.48987e-011 -3.76925e-027   
     length 3.43721   
     axis 180 30 90   XYZ
    dof rx
    limits (-10.0 170.0)
  end
  begin
     id 27 
     name rwrist
     direction -1 -4.48943e-011 1.28112e-027   
     length 1.7186   
     axis -1.61767e-015 -90 -90   XYZ
    dof ry
    limits (-180.0 0.0)
  end
  begin
     id 28
     name rhand
     direction -1 -4.49027e-011 2.55483e-027   
     length 0.72009   
     axis -1.63363e-015 -90 -90   XYZ
    dof rx rz
    limits (-90.0 90.0)
           (-45.0 45.0)
  end
  begin
     id 29
     name rfingers
     direction -1 -4.48827e-011 5.14506e-027   
     length 0.580555   
     axis -3.26723e-015 -90 -90   XYZ
    dof rx
    limits (0.0 90.0)
  end
  begin
     id 30
     name rthumb
     direction -0.707107 -6.34936e-011 0.707107   
     length 0.833564   
     axis -90 -45 2.25915e-014   XYZ
    dof rx rz
    limits (-45.0 45.0)
           (-45.0 45.0)
  end
:hierarchy
  begin
    root lhipjoint rhipjoint lowerback
    lhipjoint lfemur
    lfemur ltibia
    ltibia lfoot
    lfoot ltoes
    rhipjoint rfemur
    rfemur rtibia
    rtibia rfoot
    rfoot rtoes
    lowerback upperback
    upperback thorax
    thorax lowerneck lclavicle rclavicle
    lowerneck upperneck
    upperneck head
    lclavicle lhumerus
    lhumerus lradius
    lradius lwrist
    lwrist lhand lthumb
    lhand lfingers
    rclavicle rhumerus
    rhumerus rradius
    rradius rwrist
    rwrist rhand rthumb
    rhand rfingers
  end

#!OML:ASF H:\Terrain\Patient Classification 1\Terrain2\Thursday\justin.ASF
:FULLY-SPECIFIED
:DEGREES
1
root 30.1467 17.8473 0.263869 154.899 -80.8952 -152.819
lowerback 5.42463 1.18194 5.51204
upperback 1.46281 1.82158 3.73555
thorax -1.47813 0.845311 0.642854
lowerneck -12.7034 0.398194 -9.52572
upperneck 38.6708 0.674866 2.31029
head 15.7875 -1.40545 2.63904
rclavicle 1.2921e-015 4.21423e-014
rhumerus -30.6023 -11.0142 -75.9275
rradius 27.6057
rwrist -9.25927
rhand -21.1381 12.5508
rfingers 7.12502
rthumb 5.24103 -17.3644
lclavicle 1.2921e-015 4.21423e-014
lhumerus -38.9836 19.3786 77.6911
lradius 25.999
lwrist 3.60095
lhand -19.9147 17.4685
lfingers 7.12502
lthumb 6.42213 47.3512
rfemur -1.26781 -2.89866 27.2642
rtibia 23.6929
rfoot -19.5193 -0.0679655
rtoes 10.7411
lfemur -17.3857 -7.2874 -12.7123
ltibia 43.0558
lfoot -8.64722 -11.9633
ltoes 6.0046
2
root 30.1652 17.8614 0.243845 153.854 -81.069 -151.968
lowerback 5.7446 1.10412 5.45788
upperback 1.59202 1.72775 3.87428
thorax -1.53168 0.795285 0.817159
lowerneck -12.5069 0.4458 -9.20973
upperneck 38.4483 0.768874 1.97336
head 15.6243 -1.35115 2.44767
rclavicle -9.64106e-015 -3.49861e-014
rhumerus -30.0117 -10.9578 -75.6367
rradius 27.2128
rwrist -9.20032
rhand -20.8809 12.5908
rfingers 7.12502
rthumb 5.48937 -17.3181
lclavicle -9.64106e-015 -3.49861e-014
lhumerus -38.9355 19.6263 78.1336
lradius 26.0594
lwrist 3.38291
lhand -20.7341 18.2165
lfingers 7.12502
lthumb 5.6311 48.1217
rfemur -0.73265 -3.27214 27.3543
rtibia 22.9044
rfoot -19.2308 -0.0394449
rtoes 10.1144
lfemur -18.3328 -7.65929 -12.5295
ltibia 44.9309
lfoot -7.12993 -12.0103
ltoes 8.61826
3
root 30.1818 17.8671 0.227814 152.928 -81.2397 -151.077
lowerback 5.85061 1.07466 5.49148
upperback 1.67685 1.69025 3.9411
thorax -1.50485 0.775782 0.868952
lowerneck -12.8407 0.398273 -9.98153
upperneck 38.6365 0.790978 2.45359
head 15.7941 -1.39621 2.80301
rclavicle -2.04748e-014 5.56597e-015
rhumerus -29.6451 -11.2816 -75.3243
rradius 27.0864
rwrist -9.09337
rhand -20.5819 12.8781
rfingers 7.12502
rthumb 5.77804 -17.0231
lclavicle -2.04748e-014 5.56597e-015
lhumerus -38.8326 19.7715 78.5667
lradius 26.1028
lwrist 3.31077
lhand -21.6426 18.8236
lfingers 7.12502
lthumb 4.75391 48.7503
rfemur -0.500937 -3.48569 27.4554
rtibia 22.3888
rfoot -18.906 0.419517
rtoes 12.3568
lfemur -19.5257 -7.97214 -12.3079
ltibia 46.7864
lfoot -5.48594 -12.1578
ltoes 11.4363
4
root 30.201 17.8437 0.214132 151.891 -81.4075 -150.091
lowerback 5.94772 1.07293 5.64151
upperback 1.76757 1.69557 3.93349
thorax -1.45996 0.778674 0.776569
lowerneck -12.8763 0.385645 -10.1993
upperneck 38.606 0.775072 2.66034
head 15.7852 -1.40046 2.92999
rclavicle 2.68359e-015 3.73715e-014
rhumerus -29.5158 -10.8447 -75.4698
rradius 27.3593
rwrist -9.42156
rhand -21.4843 12.5367
rfingers 7.12502
rthumb 4.9067 -17.3865
lclavicle 2.68359e-015 3.73715e-014
lhumerus -38.6121 19.8771 78.8774
lradius 26.0216
lwrist 3.23751
lhand -22.4549 18.9013
lfingers 7.12502
lthumb 3.96954 48.8441
rfemur -0.305347 -3.63782 27.5962
rtibia 21.9674
rfoot -18.5674 0.600803
rtoes 13.0339
lfemur -20.6979 -7.86758 -12.1919
ltibia 48.5345
lfoot -3.80203 -12.1304
ltoes 11.4676
5
root 30.2097 17.8855 0.194839 149.88 -81.4626 -148.223
lowerback 6.19653 1.07721 5.8996
upperback 1.84361 1.72708 4.00501
thorax -1.5128 0.790389 0.701225
lowerneck -12.7947 0.380723 -10.2718
upperneck 38.5795 0.717484 2.82707
head 15.7533 -1.40876 3.00544
rclavicle -4.77083e-015 -1.35174e-014
rhumerus -29.4408 -10.428 -75.4851
rradius 27.684
rwrist -9.57144
rhand -22.1649 11.8731
rfingers 7.12502
rthumb 4.24955 -18.0643
lclavicle -4.77083e-015 -1.35174e-014
lhumerus -38.4751 19.7079 79.392
lradius 26.0153
lwrist 3.34198
lhand -23.3807 18.8852
lfingers 7.12502
lthumb 3.07541 48.8428
rfemur 0.241159 -3.59589 27.9131
rtibia 21.1987
rfoot -18.4642 0.0522114
rtoes 11.9808
lfemur -21.8798 -8.06096 -11.7228
ltibia 50.4927
lfoot -1.95951 -11.8333
ltoes 13.1636
6
root 30.2289 17.8428 0.172177 146.1 -81.3631 -144.592
lowerback 6.47819 1.11851 6.22759
upperback 1.9041 1.81357 4.25963
thorax -1.60116 0.824719 0.771978
lowerneck -12.6365 0.294548 -10.4078
upperneck 38.4894 0.559654 2.96006
head 15.6823 -1.46916 3.05908
rclavicle 7.35503e-015 -9.54166e-015
rhumerus -29.3378 -11.0683 -74.9486
rradius 27.849
rwrist -9.11614
rhand -21.7357 11.591
rfingers 7.12502
rthumb 4.66395 -18.3376
lclavicle 7.35503e-015 -9.54166e-015
lhumerus -38.4092 19.3918 80.1461
lradius 26.0944
lwrist 3.40537
lhand -24.1601 19.013
lfingers 7.12502
lthumb 2.32276 48.9801
rfemur 0.644547 -3.62307 28.5853
rtibia 20.7214
rfoot -18.567 -0.457024
rtoes 11.7736
lfemur -22.8368 -7.42311 -11.1657
ltibia 52.1956
lfoot -0.574822 -12.0584
ltoes 7.99296
7
root 30.2373 17.8759 0.144032 145.334 -81.385 -143.851
lowerback 6.60244 1.1152 6.10425
upperback 1.91992 1.80904 4.41388
thorax -1.6632 0.818703 0.998236
lowerneck -12.4594 0.26539 -10.6352
upperneck 38.3882 0.548802 2.98337
head 15.5914 -1.49833 3.10334
rclavicle -8.54774e-015 2.70347e-014
rhumerus -29.1995 -11.0878 -74.7036
rradius 27.9955
rwrist -9.07016
rhand -21.8286 11.5537
rfingers 7.12502
rthumb 4.57428 -18.3769
lclavicle -8.54774e-015 2.70347e-014
lhumerus -38.4928 19.5002 80.6212
lradius 26.22
lwrist 3.38697
lhand -24.6405 19.1166
lfingers 7.12502
lthumb 1.85875 49.0883
rfemur 0.980964 -3.90294 28.7593
rtibia 19.9877
rfoot -18.2084 -0.404247
rtoes 10.7837
lfemur -24.1293 -7.47215 -10.7085
ltibia 54.0801
lfoot 2.23682 -11.2468
ltoes 17.635
8
root 30.2486 17.873 0.127191 147.951 -81.6131 -146.516
lowerback 6.69196 0.954864 5.454
upperback 1.92621 1.56537 4.46088
thorax -1.7338 0.698658 1.42518
lowerneck -12.2877 0.436915 -10.8253
upperneck 38.3701 0.897451 2.78176
head 15.514 -1.41237 3.1002
rclavicle -1.78906e-015 4.77083e-015
rhumerus -29.0383 -10.0447 -74.8694
rradius 28.17
rwrist -9.28806
rhand -22.3823 11.5666
rfingers 7.12502
rthumb 4.03961 -18.3748
lclavicle -1.78906e-015 4.77083e-015
lhumerus -38.7546 20.2966 80.7387
lradius 26.3409
lwrist 3.35738
lhand -25.0212 19.2268
lfingers 7.12502
lthumb 1.4911 49.2013
rfemur 1.16743 -3.97094 28.3084
rtibia 19.5834
rfoot -17.8788 -0.113421
rtoes 11.0793
lfemur -25.3746 -6.50131 -11.376
ltibia 55.7689
lfoot 3.42093 -10.966
ltoes 9.55057
9
root 30.2553 17.8768 0.104244 147.386 -81.6187 -146.079
lowerback 6.87194 0.786216 5.23131
upperback 1.96247 1.33455 4.6835
thorax -1.81054 0.578878 1.79681
lowerneck -12.15 0.612116 -10.9588
upperneck 38.3966 1.25688 2.52573
head 15.4683 -1.32358 3.06605
rclavicle 9.93923e-016 -2.06736e-014
rhumerus -28.8947 -9.34097 -74.8111
rradius 28.3359
rwrist -9.13453
rhand -22.499 11.7024
rfingers 7.12502
rthumb 3.92686 -18.2411
lclavicle 9.93923e-016 -2.06736e-014
lhumerus -38.8775 20.9045 80.9837
lradius 26.413
lwrist 3.43272
lhand -25.1712 19.3457
lfingers 7.12502
lthumb 1.34625 49.3212
rfemur 1.73043 -4.1906 28.3981
rtibia 18.7159
rfoot -17.5479 0.150958
rtoes 11.6509
lfemur -26.5506 -5.83462 -11.3689
ltibia 57.6813
lfoot 4.46269 -10.8295
ltoes 4.78278
10
root 30.2597 17.872 0.0806315 143.471 -81.26 -142.257
lowerback 7.03167 0.592665 5.55574
upperback 2.02796 1.08977 5.21136
thorax -1.83531 0.442777 2.18542
lowerneck -12.209 0.787095 -11.5753
upperneck 38.5165 1.70365 2.48749
head 15.5052 -1.244 3.22828
rclavicle 2.78299e-015 3.18055e-015
rhumerus -28.5503 -8.06319 -74.563
rradius 28.5197
rwrist -9.34232
rhand -22.5661 11.7482
rfingers 7.12502
rthumb 3.8621 -18.1965
lclavicle 2.78299e-015 3.18055e-015
lhumerus -38.9599 21.392 81.5331
lradius 26.5251
lwrist 3.63894
lhand -25.4476 19.6728
lfingers 7.12502
lthumb 1.0793 49.6498
rfemur 2.21024 -4.78865 29.1406
rtibia 17.9555
rfoot -17.2298 0.442281
rtoes 10.3753
lfemur -27.7105 -5.31213 -10.5723
ltibia 59.7048
lfoot 5.52846 -10.134
ltoes 7.71774
11
root 30.2602 17.8735 0.0632206 140.811 -80.8674 -139.724
lowerback 7.20557 0.456595 5.80673
upperback 2.11864 0.91609 5.66243
thorax -1.83976 0.343191 2.53145
lowerneck -12.3037 0.94642 -12.1789
upperneck 38.5914 2.09315 2.57169
head 15.5263 -1.165 3.43204
rclavicle -2.18663e-015 -1.43125e-014
rhumerus -28.1161 -6.30907 -74.476
rradius 28.5864
rwrist -10.0659
rhand -22.6689 11.3827
rfingers 7.12502
rthumb 3.76282 -18.5638
lclavicle -2.18663e-015 -1.43125e-014
lhumerus -39.0362 21.8805 82.0678
lradius 26.594
lwrist 3.45717
lhand -26.0368 20.1074
lfingers 7.12502
lthumb 0.510199 50.0865
rfemur 2.88096 -4.91519 29.7908
rtibia 16.9382
rfoot -16.8562 0.207965
rtoes 8.91858
lfemur -28.8654 -4.59102 -9.99623
ltibia 61.9142
lfoot 5.96745 -8.93562
ltoes 10.696
